<mxfile host="Electron" agent="Mozilla/5.0 (X11; Linux x86_64) AppleWebKit/537.36 (KHTML, like Gecko) draw.io/26.0.16 Chrome/132.0.6834.210 Electron/34.3.0 Safari/537.36" version="26.0.16" pages="7">
  <diagram name="Home" id="QvoBvkuvMNZLu6-qMZTv">
    <mxGraphModel dx="1687" dy="1026" grid="1" gridSize="10" guides="1" tooltips="1" connect="1" arrows="1" fold="1" page="1" pageScale="1" pageWidth="1600" pageHeight="900" math="0" shadow="0">
      <root>
        <mxCell id="0" />
        <mxCell id="1" parent="0" />
        <mxCell id="fj4QOOCjhIDzB6QHk7ur-5" value="&lt;div&gt;&lt;font style=&quot;font-size: 23px;&quot;&gt;&lt;br&gt;&lt;/font&gt;&lt;/div&gt;&lt;font style=&quot;font-size: 23px;&quot;&gt;&lt;div&gt;&lt;font style=&quot;font-size: 23px;&quot;&gt;&lt;br&gt;&lt;/font&gt;&lt;/div&gt;&lt;div&gt;&lt;font style=&quot;font-size: 23px;&quot;&gt;&lt;br&gt;&lt;/font&gt;&lt;/div&gt;&lt;div&gt;&lt;font style=&quot;font-size: 23px;&quot;&gt;&lt;br&gt;&lt;/font&gt;&lt;/div&gt;&lt;div&gt;&lt;font style=&quot;font-size: 23px;&quot;&gt;&lt;br&gt;&lt;/font&gt;&lt;/div&gt;&lt;div&gt;&lt;font style=&quot;font-size: 23px;&quot;&gt;&lt;br&gt;&lt;/font&gt;&lt;/div&gt;img&lt;/font&gt;" style="rounded=0;whiteSpace=wrap;html=1;" parent="1" vertex="1">
          <mxGeometry width="1600" height="900" as="geometry" />
        </mxCell>
        <mxCell id="fj4QOOCjhIDzB6QHk7ur-1" value="Login/out" style="rounded=1;whiteSpace=wrap;html=1;" parent="1" vertex="1">
          <mxGeometry x="1440" y="40" width="120" height="60" as="geometry" />
        </mxCell>
        <mxCell id="fj4QOOCjhIDzB6QHk7ur-2" value="&lt;font style=&quot;font-size: 40px;&quot;&gt;Play&lt;/font&gt;" style="rounded=1;whiteSpace=wrap;html=1;" parent="1" vertex="1">
          <mxGeometry x="600" y="583" width="400" height="140" as="geometry" />
        </mxCell>
        <mxCell id="fj4QOOCjhIDzB6QHk7ur-8" value="&lt;font style=&quot;font-size: 19px;&quot;&gt;Compendium&lt;/font&gt;" style="text;html=1;align=left;verticalAlign=middle;whiteSpace=wrap;rounded=0;" parent="1" vertex="1">
          <mxGeometry x="40" y="690" width="130" height="40" as="geometry" />
        </mxCell>
        <mxCell id="fj4QOOCjhIDzB6QHk7ur-9" value="&lt;font style=&quot;font-size: 19px;&quot;&gt;Statistics&lt;/font&gt;" style="text;html=1;align=left;verticalAlign=middle;whiteSpace=wrap;rounded=0;" parent="1" vertex="1">
          <mxGeometry x="40" y="730" width="130" height="40" as="geometry" />
        </mxCell>
        <mxCell id="fj4QOOCjhIDzB6QHk7ur-10" value="&lt;font style=&quot;font-size: 19px;&quot;&gt;Settings&lt;/font&gt;" style="text;html=1;align=left;verticalAlign=middle;whiteSpace=wrap;rounded=0;" parent="1" vertex="1">
          <mxGeometry x="40" y="772" width="130" height="40" as="geometry" />
        </mxCell>
        <mxCell id="fj4QOOCjhIDzB6QHk7ur-12" value="&lt;font style=&quot;font-size: 37px;&quot;&gt;IMG&lt;/font&gt;" style="rounded=0;whiteSpace=wrap;html=1;" parent="1" vertex="1">
          <mxGeometry x="480" y="240" width="660" height="260" as="geometry" />
        </mxCell>
      </root>
    </mxGraphModel>
  </diagram>
  <diagram id="tPbdVasGrmmvznl5TRWY" name="lvl select">
    <mxGraphModel dx="2049" dy="1246" grid="1" gridSize="10" guides="1" tooltips="1" connect="1" arrows="1" fold="1" page="1" pageScale="1" pageWidth="1600" pageHeight="900" math="0" shadow="0">
      <root>
        <mxCell id="0" />
        <mxCell id="1" parent="0" />
        <mxCell id="O-F84xTmsi5BZHS-yf-4-1" value="&lt;font style=&quot;font-size: 30px;&quot;&gt;img&lt;/font&gt;" style="rounded=0;whiteSpace=wrap;html=1;align=left;" vertex="1" parent="1">
          <mxGeometry width="1600" height="2700" as="geometry" />
        </mxCell>
        <mxCell id="O-F84xTmsi5BZHS-yf-4-3" value="&lt;font style=&quot;font-size: 24px;&quot;&gt;img&lt;/font&gt;" style="rounded=1;whiteSpace=wrap;html=1;align=left;" vertex="1" parent="1">
          <mxGeometry x="170" y="150" width="1280" height="2470" as="geometry" />
        </mxCell>
        <mxCell id="O-F84xTmsi5BZHS-yf-4-4" value="&lt;font style=&quot;font-size: 24px;&quot;&gt;Static img&lt;/font&gt;" style="rounded=1;whiteSpace=wrap;html=1;" vertex="1" parent="1">
          <mxGeometry x="1330" y="550" width="250" height="200" as="geometry" />
        </mxCell>
        <mxCell id="O-F84xTmsi5BZHS-yf-4-5" value="&lt;font style=&quot;font-size: 27px;&quot;&gt;IMG&lt;/font&gt;" style="ellipse;whiteSpace=wrap;html=1;aspect=fixed;" vertex="1" parent="1">
          <mxGeometry x="240" y="2450" width="80" height="80" as="geometry" />
        </mxCell>
        <mxCell id="O-F84xTmsi5BZHS-yf-4-6" value="" style="endArrow=none;dashed=1;html=1;dashPattern=1 3;strokeWidth=2;rounded=0;exitX=0.086;exitY=0.93;exitDx=0;exitDy=0;exitPerimeter=0;" edge="1" parent="1" source="O-F84xTmsi5BZHS-yf-4-3" target="O-F84xTmsi5BZHS-yf-4-7">
          <mxGeometry width="50" height="50" relative="1" as="geometry">
            <mxPoint x="780" y="2320" as="sourcePoint" />
            <mxPoint x="830" y="2270" as="targetPoint" />
          </mxGeometry>
        </mxCell>
        <mxCell id="O-F84xTmsi5BZHS-yf-4-7" value="&lt;font style=&quot;font-size: 27px;&quot;&gt;IMG&lt;/font&gt;" style="ellipse;whiteSpace=wrap;html=1;aspect=fixed;" vertex="1" parent="1">
          <mxGeometry x="440" y="2230" width="80" height="80" as="geometry" />
        </mxCell>
        <mxCell id="O-F84xTmsi5BZHS-yf-4-8" value="&lt;font style=&quot;font-size: 27px;&quot;&gt;IMG&lt;/font&gt;" style="ellipse;whiteSpace=wrap;html=1;aspect=fixed;" vertex="1" parent="1">
          <mxGeometry x="580" y="2440" width="80" height="80" as="geometry" />
        </mxCell>
        <mxCell id="O-F84xTmsi5BZHS-yf-4-9" value="&lt;font style=&quot;font-size: 27px;&quot;&gt;IMG&lt;/font&gt;" style="ellipse;whiteSpace=wrap;html=1;aspect=fixed;" vertex="1" parent="1">
          <mxGeometry x="1155" y="2440" width="80" height="80" as="geometry" />
        </mxCell>
        <mxCell id="O-F84xTmsi5BZHS-yf-4-10" value="&lt;font style=&quot;font-size: 27px;&quot;&gt;IMG&lt;/font&gt;" style="ellipse;whiteSpace=wrap;html=1;aspect=fixed;" vertex="1" parent="1">
          <mxGeometry x="220" y="2230" width="80" height="80" as="geometry" />
        </mxCell>
        <mxCell id="O-F84xTmsi5BZHS-yf-4-11" value="" style="endArrow=none;dashed=1;html=1;dashPattern=1 3;strokeWidth=2;rounded=0;exitX=0.5;exitY=0;exitDx=0;exitDy=0;entryX=0.5;entryY=1;entryDx=0;entryDy=0;" edge="1" parent="1" source="O-F84xTmsi5BZHS-yf-4-5" target="O-F84xTmsi5BZHS-yf-4-10">
          <mxGeometry width="50" height="50" relative="1" as="geometry">
            <mxPoint x="310" y="2461" as="sourcePoint" />
            <mxPoint x="364" y="2337" as="targetPoint" />
          </mxGeometry>
        </mxCell>
        <mxCell id="O-F84xTmsi5BZHS-yf-4-12" value="&lt;font style=&quot;font-size: 27px;&quot;&gt;IMG&lt;/font&gt;" style="ellipse;whiteSpace=wrap;html=1;aspect=fixed;" vertex="1" parent="1">
          <mxGeometry x="767" y="2220" width="80" height="80" as="geometry" />
        </mxCell>
        <mxCell id="O-F84xTmsi5BZHS-yf-4-13" value="" style="endArrow=none;dashed=1;html=1;dashPattern=1 3;strokeWidth=2;rounded=0;exitX=0;exitY=0;exitDx=0;exitDy=0;entryX=0.727;entryY=0.961;entryDx=0;entryDy=0;entryPerimeter=0;" edge="1" parent="1" source="O-F84xTmsi5BZHS-yf-4-8" target="O-F84xTmsi5BZHS-yf-4-7">
          <mxGeometry width="50" height="50" relative="1" as="geometry">
            <mxPoint x="310" y="2461" as="sourcePoint" />
            <mxPoint x="462" y="2308" as="targetPoint" />
          </mxGeometry>
        </mxCell>
        <mxCell id="O-F84xTmsi5BZHS-yf-4-14" value="" style="endArrow=none;dashed=1;html=1;dashPattern=1 3;strokeWidth=2;rounded=0;entryX=0.5;entryY=1;entryDx=0;entryDy=0;" edge="1" parent="1" source="O-F84xTmsi5BZHS-yf-4-8" target="O-F84xTmsi5BZHS-yf-4-12">
          <mxGeometry width="50" height="50" relative="1" as="geometry">
            <mxPoint x="320" y="2471" as="sourcePoint" />
            <mxPoint x="472" y="2318" as="targetPoint" />
          </mxGeometry>
        </mxCell>
        <mxCell id="O-F84xTmsi5BZHS-yf-4-15" value="&lt;font style=&quot;font-size: 27px;&quot;&gt;IMG&lt;/font&gt;" style="ellipse;whiteSpace=wrap;html=1;aspect=fixed;" vertex="1" parent="1">
          <mxGeometry x="280" y="1960" width="80" height="80" as="geometry" />
        </mxCell>
        <mxCell id="O-F84xTmsi5BZHS-yf-4-16" value="" style="endArrow=none;dashed=1;html=1;dashPattern=1 3;strokeWidth=2;rounded=0;exitX=0.673;exitY=0.05;exitDx=0;exitDy=0;entryX=0.316;entryY=0.979;entryDx=0;entryDy=0;entryPerimeter=0;exitPerimeter=0;" edge="1" parent="1" source="O-F84xTmsi5BZHS-yf-4-10" target="O-F84xTmsi5BZHS-yf-4-15">
          <mxGeometry width="50" height="50" relative="1" as="geometry">
            <mxPoint x="290" y="2460" as="sourcePoint" />
            <mxPoint x="270" y="2320" as="targetPoint" />
          </mxGeometry>
        </mxCell>
        <mxCell id="O-F84xTmsi5BZHS-yf-4-17" value="" style="endArrow=none;dashed=1;html=1;dashPattern=1 3;strokeWidth=2;rounded=0;exitX=0.5;exitY=0;exitDx=0;exitDy=0;entryX=0.5;entryY=1;entryDx=0;entryDy=0;" edge="1" parent="1" source="O-F84xTmsi5BZHS-yf-4-7" target="O-F84xTmsi5BZHS-yf-4-18">
          <mxGeometry width="50" height="50" relative="1" as="geometry">
            <mxPoint x="300" y="2470" as="sourcePoint" />
            <mxPoint x="280" y="2330" as="targetPoint" />
          </mxGeometry>
        </mxCell>
        <mxCell id="O-F84xTmsi5BZHS-yf-4-18" value="&lt;font style=&quot;font-size: 27px;&quot;&gt;IMG&lt;/font&gt;" style="ellipse;whiteSpace=wrap;html=1;aspect=fixed;" vertex="1" parent="1">
          <mxGeometry x="480" y="1970" width="80" height="80" as="geometry" />
        </mxCell>
        <mxCell id="O-F84xTmsi5BZHS-yf-4-19" value="&lt;font style=&quot;font-size: 27px;&quot;&gt;IMG&lt;/font&gt;" style="ellipse;whiteSpace=wrap;html=1;aspect=fixed;" vertex="1" parent="1">
          <mxGeometry x="797" y="1990" width="80" height="80" as="geometry" />
        </mxCell>
        <mxCell id="O-F84xTmsi5BZHS-yf-4-20" value="" style="endArrow=none;dashed=1;html=1;dashPattern=1 3;strokeWidth=2;rounded=0;exitX=1;exitY=0;exitDx=0;exitDy=0;entryX=0.334;entryY=0.907;entryDx=0;entryDy=0;entryPerimeter=0;" edge="1" parent="1" source="O-F84xTmsi5BZHS-yf-4-7" target="O-F84xTmsi5BZHS-yf-4-19">
          <mxGeometry width="50" height="50" relative="1" as="geometry">
            <mxPoint x="490" y="2240" as="sourcePoint" />
            <mxPoint x="530" y="2060" as="targetPoint" />
          </mxGeometry>
        </mxCell>
        <mxCell id="O-F84xTmsi5BZHS-yf-4-21" value="" style="endArrow=none;dashed=1;html=1;dashPattern=1 3;strokeWidth=2;rounded=0;exitX=0.5;exitY=0;exitDx=0;exitDy=0;entryX=0.673;entryY=0.961;entryDx=0;entryDy=0;entryPerimeter=0;" edge="1" parent="1" source="O-F84xTmsi5BZHS-yf-4-12" target="O-F84xTmsi5BZHS-yf-4-19">
          <mxGeometry width="50" height="50" relative="1" as="geometry">
            <mxPoint x="500" y="2250" as="sourcePoint" />
            <mxPoint x="540" y="2070" as="targetPoint" />
          </mxGeometry>
        </mxCell>
        <mxCell id="O-F84xTmsi5BZHS-yf-4-22" value="&lt;font style=&quot;font-size: 27px;&quot;&gt;IMG&lt;/font&gt;" style="ellipse;whiteSpace=wrap;html=1;aspect=fixed;" vertex="1" parent="1">
          <mxGeometry x="1035" y="2220" width="80" height="80" as="geometry" />
        </mxCell>
        <mxCell id="O-F84xTmsi5BZHS-yf-4-23" value="" style="endArrow=none;dashed=1;html=1;dashPattern=1 3;strokeWidth=2;rounded=0;entryX=0.5;entryY=1;entryDx=0;entryDy=0;exitX=0;exitY=0;exitDx=0;exitDy=0;" edge="1" parent="1" source="O-F84xTmsi5BZHS-yf-4-9" target="O-F84xTmsi5BZHS-yf-4-22">
          <mxGeometry width="50" height="50" relative="1" as="geometry">
            <mxPoint x="643" y="2452" as="sourcePoint" />
            <mxPoint x="690" y="2310" as="targetPoint" />
          </mxGeometry>
        </mxCell>
        <mxCell id="O-F84xTmsi5BZHS-yf-4-24" value="&lt;font style=&quot;font-size: 27px;&quot;&gt;IMG&lt;/font&gt;" style="ellipse;whiteSpace=wrap;html=1;aspect=fixed;" vertex="1" parent="1">
          <mxGeometry x="1235" y="2220" width="80" height="80" as="geometry" />
        </mxCell>
        <mxCell id="O-F84xTmsi5BZHS-yf-4-25" value="" style="endArrow=none;dashed=1;html=1;dashPattern=1 3;strokeWidth=2;rounded=0;entryX=0.5;entryY=1;entryDx=0;entryDy=0;exitX=0.62;exitY=0.032;exitDx=0;exitDy=0;exitPerimeter=0;" edge="1" parent="1" source="O-F84xTmsi5BZHS-yf-4-9" target="O-F84xTmsi5BZHS-yf-4-24">
          <mxGeometry width="50" height="50" relative="1" as="geometry">
            <mxPoint x="992" y="2462" as="sourcePoint" />
            <mxPoint x="900" y="2310" as="targetPoint" />
          </mxGeometry>
        </mxCell>
        <mxCell id="O-F84xTmsi5BZHS-yf-4-26" value="" style="endArrow=none;dashed=1;html=1;dashPattern=1 3;strokeWidth=2;rounded=0;exitX=0.5;exitY=0;exitDx=0;exitDy=0;entryX=1;entryY=1;entryDx=0;entryDy=0;" edge="1" parent="1" source="O-F84xTmsi5BZHS-yf-4-22" target="O-F84xTmsi5BZHS-yf-4-19">
          <mxGeometry width="50" height="50" relative="1" as="geometry">
            <mxPoint x="690" y="2230" as="sourcePoint" />
            <mxPoint x="734" y="2077" as="targetPoint" />
          </mxGeometry>
        </mxCell>
        <mxCell id="O-F84xTmsi5BZHS-yf-4-27" value="&lt;font style=&quot;font-size: 27px;&quot;&gt;IMG&lt;/font&gt;" style="ellipse;whiteSpace=wrap;html=1;aspect=fixed;" vertex="1" parent="1">
          <mxGeometry x="1155" y="1980" width="80" height="80" as="geometry" />
        </mxCell>
        <mxCell id="O-F84xTmsi5BZHS-yf-4-28" value="" style="endArrow=none;dashed=1;html=1;dashPattern=1 3;strokeWidth=2;rounded=0;exitX=0.727;exitY=0.086;exitDx=0;exitDy=0;entryX=0.5;entryY=1;entryDx=0;entryDy=0;exitPerimeter=0;" edge="1" parent="1" source="O-F84xTmsi5BZHS-yf-4-22" target="O-F84xTmsi5BZHS-yf-4-27">
          <mxGeometry width="50" height="50" relative="1" as="geometry">
            <mxPoint x="900" y="2230" as="sourcePoint" />
            <mxPoint x="748" y="2068" as="targetPoint" />
          </mxGeometry>
        </mxCell>
        <mxCell id="O-F84xTmsi5BZHS-yf-4-29" value="" style="endArrow=none;dashed=1;html=1;dashPattern=1 3;strokeWidth=2;rounded=0;exitX=0.5;exitY=0;exitDx=0;exitDy=0;entryX=0.763;entryY=0.979;entryDx=0;entryDy=0;entryPerimeter=0;" edge="1" parent="1" source="O-F84xTmsi5BZHS-yf-4-24" target="O-F84xTmsi5BZHS-yf-4-27">
          <mxGeometry width="50" height="50" relative="1" as="geometry">
            <mxPoint x="910" y="2240" as="sourcePoint" />
            <mxPoint x="758" y="2078" as="targetPoint" />
          </mxGeometry>
        </mxCell>
        <mxCell id="O-F84xTmsi5BZHS-yf-4-30" value="&lt;font style=&quot;font-size: 38px;&quot;&gt;ETC&lt;/font&gt;" style="text;html=1;align=center;verticalAlign=middle;whiteSpace=wrap;rounded=0;" vertex="1" parent="1">
          <mxGeometry x="400" y="1810" width="720" height="110" as="geometry" />
        </mxCell>
        <mxCell id="qsPZDujqZpykLPl4FTHk-1" value="" style="rounded=0;whiteSpace=wrap;html=1;" vertex="1" parent="1">
          <mxGeometry width="1600" height="90" as="geometry" />
        </mxCell>
        <mxCell id="qsPZDujqZpykLPl4FTHk-2" value="&lt;font style=&quot;font-size: 27px;&quot;&gt;Text&lt;/font&gt;" style="text;html=1;align=center;verticalAlign=middle;whiteSpace=wrap;rounded=0;" vertex="1" parent="1">
          <mxGeometry x="20" y="30" width="60" height="30" as="geometry" />
        </mxCell>
        <mxCell id="qsPZDujqZpykLPl4FTHk-3" value="&lt;font style=&quot;font-size: 27px;&quot;&gt;Text&lt;/font&gt;" style="text;html=1;align=center;verticalAlign=middle;whiteSpace=wrap;rounded=0;" vertex="1" parent="1">
          <mxGeometry x="110" y="30" width="60" height="30" as="geometry" />
        </mxCell>
        <mxCell id="qsPZDujqZpykLPl4FTHk-4" value="&lt;font style=&quot;font-size: 27px;&quot;&gt;Text&lt;/font&gt;" style="text;html=1;align=center;verticalAlign=middle;whiteSpace=wrap;rounded=0;" vertex="1" parent="1">
          <mxGeometry x="290" y="30" width="60" height="30" as="geometry" />
        </mxCell>
        <mxCell id="qsPZDujqZpykLPl4FTHk-5" value="&lt;font style=&quot;font-size: 27px;&quot;&gt;img&lt;/font&gt;" style="ellipse;whiteSpace=wrap;html=1;aspect=fixed;" vertex="1" parent="1">
          <mxGeometry x="230" y="15" width="60" height="60" as="geometry" />
        </mxCell>
        <mxCell id="qsPZDujqZpykLPl4FTHk-6" value="&lt;font style=&quot;font-size: 27px;&quot;&gt;Text&lt;/font&gt;" style="text;html=1;align=center;verticalAlign=middle;whiteSpace=wrap;rounded=0;" vertex="1" parent="1">
          <mxGeometry x="477" y="28" width="60" height="30" as="geometry" />
        </mxCell>
        <mxCell id="qsPZDujqZpykLPl4FTHk-7" value="&lt;font style=&quot;font-size: 27px;&quot;&gt;img&lt;/font&gt;" style="ellipse;whiteSpace=wrap;html=1;aspect=fixed;" vertex="1" parent="1">
          <mxGeometry x="417" y="13" width="60" height="60" as="geometry" />
        </mxCell>
        <mxCell id="qsPZDujqZpykLPl4FTHk-8" value="&lt;font style=&quot;font-size: 27px;&quot;&gt;img&lt;/font&gt;" style="ellipse;whiteSpace=wrap;html=1;aspect=fixed;" vertex="1" parent="1">
          <mxGeometry x="590" y="13" width="60" height="60" as="geometry" />
        </mxCell>
        <mxCell id="qsPZDujqZpykLPl4FTHk-9" value="&lt;font style=&quot;font-size: 27px;&quot;&gt;img&lt;/font&gt;" style="ellipse;whiteSpace=wrap;html=1;aspect=fixed;" vertex="1" parent="1">
          <mxGeometry x="670" y="13" width="60" height="60" as="geometry" />
        </mxCell>
        <mxCell id="qsPZDujqZpykLPl4FTHk-10" value="&lt;font style=&quot;font-size: 27px;&quot;&gt;img&lt;/font&gt;" style="ellipse;whiteSpace=wrap;html=1;aspect=fixed;" vertex="1" parent="1">
          <mxGeometry x="750" y="13" width="60" height="60" as="geometry" />
        </mxCell>
        <mxCell id="qsPZDujqZpykLPl4FTHk-11" value="&lt;font style=&quot;font-size: 27px;&quot;&gt;Text&lt;/font&gt;" style="text;html=1;align=center;verticalAlign=middle;whiteSpace=wrap;rounded=0;" vertex="1" parent="1">
          <mxGeometry x="1020" y="30" width="60" height="30" as="geometry" />
        </mxCell>
        <mxCell id="qsPZDujqZpykLPl4FTHk-12" value="&lt;font style=&quot;font-size: 27px;&quot;&gt;img&lt;/font&gt;" style="ellipse;whiteSpace=wrap;html=1;aspect=fixed;" vertex="1" parent="1">
          <mxGeometry x="960" y="15" width="60" height="60" as="geometry" />
        </mxCell>
        <mxCell id="qsPZDujqZpykLPl4FTHk-13" value="&lt;font style=&quot;font-size: 27px;&quot;&gt;img&lt;/font&gt;" style="ellipse;whiteSpace=wrap;html=1;aspect=fixed;" vertex="1" parent="1">
          <mxGeometry x="1360" y="13" width="60" height="60" as="geometry" />
        </mxCell>
        <mxCell id="qsPZDujqZpykLPl4FTHk-14" value="&lt;font style=&quot;font-size: 27px;&quot;&gt;img&lt;/font&gt;" style="ellipse;whiteSpace=wrap;html=1;aspect=fixed;" vertex="1" parent="1">
          <mxGeometry x="1440" y="13" width="60" height="60" as="geometry" />
        </mxCell>
        <mxCell id="qsPZDujqZpykLPl4FTHk-15" value="&lt;font style=&quot;font-size: 27px;&quot;&gt;img&lt;/font&gt;" style="ellipse;whiteSpace=wrap;html=1;aspect=fixed;" vertex="1" parent="1">
          <mxGeometry x="1520" y="13" width="60" height="60" as="geometry" />
        </mxCell>
        <mxCell id="qsPZDujqZpykLPl4FTHk-16" value="&lt;font style=&quot;font-size: 27px;&quot;&gt;img&lt;/font&gt;" style="ellipse;whiteSpace=wrap;html=1;aspect=fixed;" vertex="1" parent="1">
          <mxGeometry x="10" y="94" width="60" height="60" as="geometry" />
        </mxCell>
      </root>
    </mxGraphModel>
  </diagram>
  <diagram id="4Mx5JtSER2zyV9fbq1zr" name="battle">
    <mxGraphModel dx="1687" dy="1026" grid="1" gridSize="10" guides="1" tooltips="1" connect="1" arrows="1" fold="1" page="1" pageScale="1" pageWidth="1600" pageHeight="900" math="0" shadow="0">
      <root>
        <mxCell id="0" />
        <mxCell id="1" parent="0" />
        <mxCell id="VCmnbaqYIShD7McYNW_O-1" value="&lt;font style=&quot;font-size: 27px;&quot;&gt;img&lt;/font&gt;" style="rounded=0;whiteSpace=wrap;html=1;align=left;" vertex="1" parent="1">
          <mxGeometry width="1600" height="900" as="geometry" />
        </mxCell>
        <mxCell id="VCmnbaqYIShD7McYNW_O-3" value="" style="rounded=1;whiteSpace=wrap;html=1;rotation=-30;" vertex="1" parent="1">
          <mxGeometry x="520" y="720" width="140" height="230" as="geometry" />
        </mxCell>
        <mxCell id="VCmnbaqYIShD7McYNW_O-4" value="" style="rounded=1;whiteSpace=wrap;html=1;rotation=-15;" vertex="1" parent="1">
          <mxGeometry x="590" y="700" width="140" height="230" as="geometry" />
        </mxCell>
        <mxCell id="VCmnbaqYIShD7McYNW_O-5" value="" style="rounded=1;whiteSpace=wrap;html=1;rotation=0;" vertex="1" parent="1">
          <mxGeometry x="690" y="690" width="140" height="230" as="geometry" />
        </mxCell>
        <mxCell id="VCmnbaqYIShD7McYNW_O-6" value="" style="rounded=1;whiteSpace=wrap;html=1;rotation=15;" vertex="1" parent="1">
          <mxGeometry x="800" y="700" width="140" height="230" as="geometry" />
        </mxCell>
        <mxCell id="VCmnbaqYIShD7McYNW_O-7" value="" style="rounded=1;whiteSpace=wrap;html=1;rotation=30;" vertex="1" parent="1">
          <mxGeometry x="880" y="730" width="140" height="230" as="geometry" />
        </mxCell>
        <mxCell id="VCmnbaqYIShD7McYNW_O-8" value="&lt;font style=&quot;font-size: 27px;&quot;&gt;IMG&lt;/font&gt;" style="rounded=0;whiteSpace=wrap;html=1;" vertex="1" parent="1">
          <mxGeometry x="210" y="310" width="180" height="320" as="geometry" />
        </mxCell>
        <mxCell id="VCmnbaqYIShD7McYNW_O-9" value="&lt;font style=&quot;font-size: 27px;&quot;&gt;IMG&lt;/font&gt;" style="rounded=0;whiteSpace=wrap;html=1;" vertex="1" parent="1">
          <mxGeometry x="965" y="290" width="180" height="320" as="geometry" />
        </mxCell>
        <mxCell id="VCmnbaqYIShD7McYNW_O-10" value="&lt;font style=&quot;font-size: 27px;&quot;&gt;IMG&lt;/font&gt;" style="rounded=0;whiteSpace=wrap;html=1;" vertex="1" parent="1">
          <mxGeometry x="1218" y="290" width="180" height="320" as="geometry" />
        </mxCell>
        <mxCell id="VCmnbaqYIShD7McYNW_O-11" value="&lt;font style=&quot;font-size: 27px;&quot;&gt;img&lt;/font&gt;" style="rounded=1;whiteSpace=wrap;html=1;" vertex="1" parent="1">
          <mxGeometry x="210" y="650" width="180" height="40" as="geometry" />
        </mxCell>
        <mxCell id="YNCT8eHP_oVYfbV8SNdk-1" value="&lt;font style=&quot;font-size: 27px;&quot;&gt;img&lt;/font&gt;" style="rounded=1;whiteSpace=wrap;html=1;" vertex="1" parent="1">
          <mxGeometry x="965" y="641" width="180" height="40" as="geometry" />
        </mxCell>
        <mxCell id="YNCT8eHP_oVYfbV8SNdk-2" value="&lt;font style=&quot;font-size: 27px;&quot;&gt;img&lt;/font&gt;" style="rounded=1;whiteSpace=wrap;html=1;" vertex="1" parent="1">
          <mxGeometry x="1218" y="640" width="180" height="40" as="geometry" />
        </mxCell>
        <mxCell id="YNCT8eHP_oVYfbV8SNdk-3" value="&lt;font style=&quot;font-size: 27px;&quot;&gt;img&lt;/font&gt;" style="ellipse;whiteSpace=wrap;html=1;aspect=fixed;" vertex="1" parent="1">
          <mxGeometry x="1015" y="170" width="80" height="80" as="geometry" />
        </mxCell>
        <mxCell id="YNCT8eHP_oVYfbV8SNdk-4" value="&lt;font style=&quot;font-size: 27px;&quot;&gt;img&lt;/font&gt;" style="ellipse;whiteSpace=wrap;html=1;aspect=fixed;" vertex="1" parent="1">
          <mxGeometry x="1260" y="170" width="80" height="80" as="geometry" />
        </mxCell>
        <mxCell id="YNCT8eHP_oVYfbV8SNdk-5" value="" style="rounded=0;whiteSpace=wrap;html=1;" vertex="1" parent="1">
          <mxGeometry width="1600" height="90" as="geometry" />
        </mxCell>
        <mxCell id="YNCT8eHP_oVYfbV8SNdk-7" value="&lt;font style=&quot;font-size: 27px;&quot;&gt;Text&lt;/font&gt;" style="text;html=1;align=center;verticalAlign=middle;whiteSpace=wrap;rounded=0;" vertex="1" parent="1">
          <mxGeometry x="20" y="30" width="60" height="30" as="geometry" />
        </mxCell>
        <mxCell id="YNCT8eHP_oVYfbV8SNdk-8" value="&lt;font style=&quot;font-size: 27px;&quot;&gt;Text&lt;/font&gt;" style="text;html=1;align=center;verticalAlign=middle;whiteSpace=wrap;rounded=0;" vertex="1" parent="1">
          <mxGeometry x="110" y="30" width="60" height="30" as="geometry" />
        </mxCell>
        <mxCell id="YNCT8eHP_oVYfbV8SNdk-9" value="&lt;font style=&quot;font-size: 27px;&quot;&gt;Text&lt;/font&gt;" style="text;html=1;align=center;verticalAlign=middle;whiteSpace=wrap;rounded=0;" vertex="1" parent="1">
          <mxGeometry x="290" y="30" width="60" height="30" as="geometry" />
        </mxCell>
        <mxCell id="YNCT8eHP_oVYfbV8SNdk-10" value="&lt;font style=&quot;font-size: 27px;&quot;&gt;img&lt;/font&gt;" style="ellipse;whiteSpace=wrap;html=1;aspect=fixed;" vertex="1" parent="1">
          <mxGeometry x="230" y="15" width="60" height="60" as="geometry" />
        </mxCell>
        <mxCell id="YNCT8eHP_oVYfbV8SNdk-11" value="&lt;font style=&quot;font-size: 27px;&quot;&gt;Text&lt;/font&gt;" style="text;html=1;align=center;verticalAlign=middle;whiteSpace=wrap;rounded=0;" vertex="1" parent="1">
          <mxGeometry x="477" y="28" width="60" height="30" as="geometry" />
        </mxCell>
        <mxCell id="YNCT8eHP_oVYfbV8SNdk-12" value="&lt;font style=&quot;font-size: 27px;&quot;&gt;img&lt;/font&gt;" style="ellipse;whiteSpace=wrap;html=1;aspect=fixed;" vertex="1" parent="1">
          <mxGeometry x="417" y="13" width="60" height="60" as="geometry" />
        </mxCell>
        <mxCell id="YNCT8eHP_oVYfbV8SNdk-13" value="&lt;font style=&quot;font-size: 27px;&quot;&gt;img&lt;/font&gt;" style="ellipse;whiteSpace=wrap;html=1;aspect=fixed;" vertex="1" parent="1">
          <mxGeometry x="590" y="13" width="60" height="60" as="geometry" />
        </mxCell>
        <mxCell id="YNCT8eHP_oVYfbV8SNdk-14" value="&lt;font style=&quot;font-size: 27px;&quot;&gt;img&lt;/font&gt;" style="ellipse;whiteSpace=wrap;html=1;aspect=fixed;" vertex="1" parent="1">
          <mxGeometry x="670" y="13" width="60" height="60" as="geometry" />
        </mxCell>
        <mxCell id="YNCT8eHP_oVYfbV8SNdk-15" value="&lt;font style=&quot;font-size: 27px;&quot;&gt;img&lt;/font&gt;" style="ellipse;whiteSpace=wrap;html=1;aspect=fixed;" vertex="1" parent="1">
          <mxGeometry x="750" y="13" width="60" height="60" as="geometry" />
        </mxCell>
        <mxCell id="YNCT8eHP_oVYfbV8SNdk-16" value="&lt;font style=&quot;font-size: 27px;&quot;&gt;Text&lt;/font&gt;" style="text;html=1;align=center;verticalAlign=middle;whiteSpace=wrap;rounded=0;" vertex="1" parent="1">
          <mxGeometry x="1020" y="30" width="60" height="30" as="geometry" />
        </mxCell>
        <mxCell id="YNCT8eHP_oVYfbV8SNdk-17" value="&lt;font style=&quot;font-size: 27px;&quot;&gt;img&lt;/font&gt;" style="ellipse;whiteSpace=wrap;html=1;aspect=fixed;" vertex="1" parent="1">
          <mxGeometry x="960" y="15" width="60" height="60" as="geometry" />
        </mxCell>
        <mxCell id="YNCT8eHP_oVYfbV8SNdk-18" value="&lt;font style=&quot;font-size: 27px;&quot;&gt;img&lt;/font&gt;" style="ellipse;whiteSpace=wrap;html=1;aspect=fixed;" vertex="1" parent="1">
          <mxGeometry x="1360" y="13" width="60" height="60" as="geometry" />
        </mxCell>
        <mxCell id="YNCT8eHP_oVYfbV8SNdk-19" value="&lt;font style=&quot;font-size: 27px;&quot;&gt;img&lt;/font&gt;" style="ellipse;whiteSpace=wrap;html=1;aspect=fixed;" vertex="1" parent="1">
          <mxGeometry x="1440" y="13" width="60" height="60" as="geometry" />
        </mxCell>
        <mxCell id="YNCT8eHP_oVYfbV8SNdk-20" value="&lt;font style=&quot;font-size: 27px;&quot;&gt;img&lt;/font&gt;" style="ellipse;whiteSpace=wrap;html=1;aspect=fixed;" vertex="1" parent="1">
          <mxGeometry x="1520" y="13" width="60" height="60" as="geometry" />
        </mxCell>
        <mxCell id="YNCT8eHP_oVYfbV8SNdk-21" value="&lt;font style=&quot;font-size: 27px;&quot;&gt;img&lt;/font&gt;" style="ellipse;whiteSpace=wrap;html=1;aspect=fixed;" vertex="1" parent="1">
          <mxGeometry x="10" y="94" width="60" height="60" as="geometry" />
        </mxCell>
        <mxCell id="LSgWZS6E_wrM7MYwPfQA-1" value="&lt;font style=&quot;font-size: 22px;&quot;&gt;IMG&lt;/font&gt;" style="ellipse;whiteSpace=wrap;html=1;aspect=fixed;" vertex="1" parent="1">
          <mxGeometry x="210" y="700" width="40" height="40" as="geometry" />
        </mxCell>
        <mxCell id="LSgWZS6E_wrM7MYwPfQA-2" value="&lt;font style=&quot;font-size: 22px;&quot;&gt;IMG&lt;/font&gt;" style="ellipse;whiteSpace=wrap;html=1;aspect=fixed;" vertex="1" parent="1">
          <mxGeometry x="260" y="700" width="40" height="40" as="geometry" />
        </mxCell>
        <mxCell id="LSgWZS6E_wrM7MYwPfQA-3" value="&lt;font style=&quot;font-size: 22px;&quot;&gt;IMG&lt;/font&gt;" style="ellipse;whiteSpace=wrap;html=1;aspect=fixed;" vertex="1" parent="1">
          <mxGeometry x="310" y="700" width="40" height="40" as="geometry" />
        </mxCell>
        <mxCell id="LSgWZS6E_wrM7MYwPfQA-4" value="&lt;font style=&quot;font-size: 22px;&quot;&gt;IMG&lt;/font&gt;" style="ellipse;whiteSpace=wrap;html=1;aspect=fixed;" vertex="1" parent="1">
          <mxGeometry x="1220" y="690" width="40" height="40" as="geometry" />
        </mxCell>
      </root>
    </mxGraphModel>
  </diagram>
  <diagram id="cB7WpQ8s8qMVIlnTB1Hw" name="reward">
    <mxGraphModel dx="2049" dy="1246" grid="1" gridSize="10" guides="1" tooltips="1" connect="1" arrows="1" fold="1" page="1" pageScale="1" pageWidth="1600" pageHeight="900" math="0" shadow="0">
      <root>
        <mxCell id="0" />
        <mxCell id="1" parent="0" />
        <mxCell id="Md_eMHkcv3zcJLlN59fj-1" value="&lt;font style=&quot;font-size: 27px;&quot;&gt;img&lt;/font&gt;" style="rounded=0;whiteSpace=wrap;html=1;align=left;" parent="1" vertex="1">
          <mxGeometry width="1600" height="900" as="geometry" />
        </mxCell>
        <mxCell id="Md_eMHkcv3zcJLlN59fj-15" value="" style="rounded=0;whiteSpace=wrap;html=1;" parent="1" vertex="1">
          <mxGeometry width="1600" height="90" as="geometry" />
        </mxCell>
        <mxCell id="Md_eMHkcv3zcJLlN59fj-16" value="&lt;font style=&quot;font-size: 27px;&quot;&gt;Text&lt;/font&gt;" style="text;html=1;align=center;verticalAlign=middle;whiteSpace=wrap;rounded=0;" parent="1" vertex="1">
          <mxGeometry x="20" y="30" width="60" height="30" as="geometry" />
        </mxCell>
        <mxCell id="Md_eMHkcv3zcJLlN59fj-17" value="&lt;font style=&quot;font-size: 27px;&quot;&gt;Text&lt;/font&gt;" style="text;html=1;align=center;verticalAlign=middle;whiteSpace=wrap;rounded=0;" parent="1" vertex="1">
          <mxGeometry x="110" y="30" width="60" height="30" as="geometry" />
        </mxCell>
        <mxCell id="Md_eMHkcv3zcJLlN59fj-18" value="&lt;font style=&quot;font-size: 27px;&quot;&gt;Text&lt;/font&gt;" style="text;html=1;align=center;verticalAlign=middle;whiteSpace=wrap;rounded=0;" parent="1" vertex="1">
          <mxGeometry x="290" y="30" width="60" height="30" as="geometry" />
        </mxCell>
        <mxCell id="Md_eMHkcv3zcJLlN59fj-19" value="&lt;font style=&quot;font-size: 27px;&quot;&gt;img&lt;/font&gt;" style="ellipse;whiteSpace=wrap;html=1;aspect=fixed;" parent="1" vertex="1">
          <mxGeometry x="230" y="15" width="60" height="60" as="geometry" />
        </mxCell>
        <mxCell id="Md_eMHkcv3zcJLlN59fj-20" value="&lt;font style=&quot;font-size: 27px;&quot;&gt;Text&lt;/font&gt;" style="text;html=1;align=center;verticalAlign=middle;whiteSpace=wrap;rounded=0;" parent="1" vertex="1">
          <mxGeometry x="477" y="28" width="60" height="30" as="geometry" />
        </mxCell>
        <mxCell id="Md_eMHkcv3zcJLlN59fj-21" value="&lt;font style=&quot;font-size: 27px;&quot;&gt;img&lt;/font&gt;" style="ellipse;whiteSpace=wrap;html=1;aspect=fixed;" parent="1" vertex="1">
          <mxGeometry x="417" y="13" width="60" height="60" as="geometry" />
        </mxCell>
        <mxCell id="Md_eMHkcv3zcJLlN59fj-22" value="&lt;font style=&quot;font-size: 27px;&quot;&gt;img&lt;/font&gt;" style="ellipse;whiteSpace=wrap;html=1;aspect=fixed;" parent="1" vertex="1">
          <mxGeometry x="590" y="13" width="60" height="60" as="geometry" />
        </mxCell>
        <mxCell id="Md_eMHkcv3zcJLlN59fj-23" value="&lt;font style=&quot;font-size: 27px;&quot;&gt;img&lt;/font&gt;" style="ellipse;whiteSpace=wrap;html=1;aspect=fixed;" parent="1" vertex="1">
          <mxGeometry x="670" y="13" width="60" height="60" as="geometry" />
        </mxCell>
        <mxCell id="Md_eMHkcv3zcJLlN59fj-24" value="&lt;font style=&quot;font-size: 27px;&quot;&gt;img&lt;/font&gt;" style="ellipse;whiteSpace=wrap;html=1;aspect=fixed;" parent="1" vertex="1">
          <mxGeometry x="750" y="13" width="60" height="60" as="geometry" />
        </mxCell>
        <mxCell id="Md_eMHkcv3zcJLlN59fj-25" value="&lt;font style=&quot;font-size: 27px;&quot;&gt;Text&lt;/font&gt;" style="text;html=1;align=center;verticalAlign=middle;whiteSpace=wrap;rounded=0;" parent="1" vertex="1">
          <mxGeometry x="1020" y="30" width="60" height="30" as="geometry" />
        </mxCell>
        <mxCell id="Md_eMHkcv3zcJLlN59fj-26" value="&lt;font style=&quot;font-size: 27px;&quot;&gt;img&lt;/font&gt;" style="ellipse;whiteSpace=wrap;html=1;aspect=fixed;" parent="1" vertex="1">
          <mxGeometry x="960" y="15" width="60" height="60" as="geometry" />
        </mxCell>
        <mxCell id="Md_eMHkcv3zcJLlN59fj-27" value="&lt;font style=&quot;font-size: 27px;&quot;&gt;img&lt;/font&gt;" style="ellipse;whiteSpace=wrap;html=1;aspect=fixed;" parent="1" vertex="1">
          <mxGeometry x="1360" y="13" width="60" height="60" as="geometry" />
        </mxCell>
        <mxCell id="Md_eMHkcv3zcJLlN59fj-28" value="&lt;font style=&quot;font-size: 27px;&quot;&gt;img&lt;/font&gt;" style="ellipse;whiteSpace=wrap;html=1;aspect=fixed;" parent="1" vertex="1">
          <mxGeometry x="1440" y="13" width="60" height="60" as="geometry" />
        </mxCell>
        <mxCell id="Md_eMHkcv3zcJLlN59fj-29" value="&lt;font style=&quot;font-size: 27px;&quot;&gt;img&lt;/font&gt;" style="ellipse;whiteSpace=wrap;html=1;aspect=fixed;" parent="1" vertex="1">
          <mxGeometry x="1520" y="13" width="60" height="60" as="geometry" />
        </mxCell>
        <mxCell id="Md_eMHkcv3zcJLlN59fj-30" value="&lt;font style=&quot;font-size: 27px;&quot;&gt;img&lt;/font&gt;" style="ellipse;whiteSpace=wrap;html=1;aspect=fixed;" parent="1" vertex="1">
          <mxGeometry x="10" y="94" width="60" height="60" as="geometry" />
        </mxCell>
        <mxCell id="Md_eMHkcv3zcJLlN59fj-50" value="" style="rounded=1;whiteSpace=wrap;html=1;" parent="1" vertex="1">
          <mxGeometry x="550" y="230" width="510" height="500" as="geometry" />
        </mxCell>
        <mxCell id="Md_eMHkcv3zcJLlN59fj-31" value="&lt;font style=&quot;font-size: 27px;&quot;&gt;text&lt;/font&gt;" style="rounded=1;whiteSpace=wrap;html=1;" parent="1" vertex="1">
          <mxGeometry x="560" y="230" width="490" height="60" as="geometry" />
        </mxCell>
        <mxCell id="Md_eMHkcv3zcJLlN59fj-52" value="&lt;font style=&quot;font-size: 27px;&quot;&gt;text&lt;/font&gt;" style="rounded=1;whiteSpace=wrap;html=1;" parent="1" vertex="1">
          <mxGeometry x="560" y="310" width="485" height="60" as="geometry" />
        </mxCell>
        <mxCell id="Md_eMHkcv3zcJLlN59fj-53" value="&lt;font style=&quot;font-size: 27px;&quot;&gt;img&lt;/font&gt;" style="ellipse;whiteSpace=wrap;html=1;aspect=fixed;" parent="1" vertex="1">
          <mxGeometry x="574" y="310" width="60" height="60" as="geometry" />
        </mxCell>
        <mxCell id="Md_eMHkcv3zcJLlN59fj-54" value="&lt;font style=&quot;font-size: 27px;&quot;&gt;img&lt;/font&gt;" style="rounded=1;whiteSpace=wrap;html=1;align=left;" parent="1" vertex="1">
          <mxGeometry x="1330" y="440" width="210" height="110" as="geometry" />
        </mxCell>
        <mxCell id="Md_eMHkcv3zcJLlN59fj-55" value="&lt;font style=&quot;font-size: 27px;&quot;&gt;Text&lt;/font&gt;" style="text;html=1;align=center;verticalAlign=middle;whiteSpace=wrap;rounded=0;" parent="1" vertex="1">
          <mxGeometry x="1420" y="480" width="60" height="30" as="geometry" />
        </mxCell>
        <mxCell id="xRiLojHhA4wtV6_gRiPx-1" value="&lt;font style=&quot;font-size: 27px;&quot;&gt;text&lt;/font&gt;" style="rounded=1;whiteSpace=wrap;html=1;" vertex="1" parent="1">
          <mxGeometry x="559" y="386" width="485" height="60" as="geometry" />
        </mxCell>
        <mxCell id="xRiLojHhA4wtV6_gRiPx-2" value="&lt;font style=&quot;font-size: 27px;&quot;&gt;img&lt;/font&gt;" style="ellipse;whiteSpace=wrap;html=1;aspect=fixed;" vertex="1" parent="1">
          <mxGeometry x="573" y="386" width="60" height="60" as="geometry" />
        </mxCell>
      </root>
    </mxGraphModel>
  </diagram>
  <diagram id="yVngqPfrzMvMB9zXhlFB" name="event">
    <mxGraphModel dx="1687" dy="1026" grid="1" gridSize="10" guides="1" tooltips="1" connect="1" arrows="1" fold="1" page="1" pageScale="1" pageWidth="1600" pageHeight="900" math="0" shadow="0">
      <root>
        <mxCell id="0" />
        <mxCell id="1" parent="0" />
        <mxCell id="v3VLUjdi5kRXmmSsONuN-1" value="&lt;font style=&quot;font-size: 27px;&quot;&gt;img&lt;/font&gt;" style="rounded=0;whiteSpace=wrap;html=1;align=left;" vertex="1" parent="1">
          <mxGeometry width="1600" height="900" as="geometry" />
        </mxCell>
        <mxCell id="v3VLUjdi5kRXmmSsONuN-2" value="" style="rounded=0;whiteSpace=wrap;html=1;" vertex="1" parent="1">
          <mxGeometry width="1600" height="90" as="geometry" />
        </mxCell>
        <mxCell id="v3VLUjdi5kRXmmSsONuN-3" value="&lt;font style=&quot;font-size: 27px;&quot;&gt;Text&lt;/font&gt;" style="text;html=1;align=center;verticalAlign=middle;whiteSpace=wrap;rounded=0;" vertex="1" parent="1">
          <mxGeometry x="20" y="30" width="60" height="30" as="geometry" />
        </mxCell>
        <mxCell id="v3VLUjdi5kRXmmSsONuN-4" value="&lt;font style=&quot;font-size: 27px;&quot;&gt;Text&lt;/font&gt;" style="text;html=1;align=center;verticalAlign=middle;whiteSpace=wrap;rounded=0;" vertex="1" parent="1">
          <mxGeometry x="110" y="30" width="60" height="30" as="geometry" />
        </mxCell>
        <mxCell id="v3VLUjdi5kRXmmSsONuN-5" value="&lt;font style=&quot;font-size: 27px;&quot;&gt;Text&lt;/font&gt;" style="text;html=1;align=center;verticalAlign=middle;whiteSpace=wrap;rounded=0;" vertex="1" parent="1">
          <mxGeometry x="290" y="30" width="60" height="30" as="geometry" />
        </mxCell>
        <mxCell id="v3VLUjdi5kRXmmSsONuN-6" value="&lt;font style=&quot;font-size: 27px;&quot;&gt;img&lt;/font&gt;" style="ellipse;whiteSpace=wrap;html=1;aspect=fixed;" vertex="1" parent="1">
          <mxGeometry x="230" y="15" width="60" height="60" as="geometry" />
        </mxCell>
        <mxCell id="v3VLUjdi5kRXmmSsONuN-7" value="&lt;font style=&quot;font-size: 27px;&quot;&gt;Text&lt;/font&gt;" style="text;html=1;align=center;verticalAlign=middle;whiteSpace=wrap;rounded=0;" vertex="1" parent="1">
          <mxGeometry x="477" y="28" width="60" height="30" as="geometry" />
        </mxCell>
        <mxCell id="v3VLUjdi5kRXmmSsONuN-8" value="&lt;font style=&quot;font-size: 27px;&quot;&gt;img&lt;/font&gt;" style="ellipse;whiteSpace=wrap;html=1;aspect=fixed;" vertex="1" parent="1">
          <mxGeometry x="417" y="13" width="60" height="60" as="geometry" />
        </mxCell>
        <mxCell id="v3VLUjdi5kRXmmSsONuN-9" value="&lt;font style=&quot;font-size: 27px;&quot;&gt;img&lt;/font&gt;" style="ellipse;whiteSpace=wrap;html=1;aspect=fixed;" vertex="1" parent="1">
          <mxGeometry x="590" y="13" width="60" height="60" as="geometry" />
        </mxCell>
        <mxCell id="v3VLUjdi5kRXmmSsONuN-10" value="&lt;font style=&quot;font-size: 27px;&quot;&gt;img&lt;/font&gt;" style="ellipse;whiteSpace=wrap;html=1;aspect=fixed;" vertex="1" parent="1">
          <mxGeometry x="670" y="13" width="60" height="60" as="geometry" />
        </mxCell>
        <mxCell id="v3VLUjdi5kRXmmSsONuN-11" value="&lt;font style=&quot;font-size: 27px;&quot;&gt;img&lt;/font&gt;" style="ellipse;whiteSpace=wrap;html=1;aspect=fixed;" vertex="1" parent="1">
          <mxGeometry x="750" y="13" width="60" height="60" as="geometry" />
        </mxCell>
        <mxCell id="v3VLUjdi5kRXmmSsONuN-12" value="&lt;font style=&quot;font-size: 27px;&quot;&gt;Text&lt;/font&gt;" style="text;html=1;align=center;verticalAlign=middle;whiteSpace=wrap;rounded=0;" vertex="1" parent="1">
          <mxGeometry x="1020" y="30" width="60" height="30" as="geometry" />
        </mxCell>
        <mxCell id="v3VLUjdi5kRXmmSsONuN-13" value="&lt;font style=&quot;font-size: 27px;&quot;&gt;img&lt;/font&gt;" style="ellipse;whiteSpace=wrap;html=1;aspect=fixed;" vertex="1" parent="1">
          <mxGeometry x="960" y="15" width="60" height="60" as="geometry" />
        </mxCell>
        <mxCell id="v3VLUjdi5kRXmmSsONuN-14" value="&lt;font style=&quot;font-size: 27px;&quot;&gt;img&lt;/font&gt;" style="ellipse;whiteSpace=wrap;html=1;aspect=fixed;" vertex="1" parent="1">
          <mxGeometry x="1360" y="13" width="60" height="60" as="geometry" />
        </mxCell>
        <mxCell id="v3VLUjdi5kRXmmSsONuN-15" value="&lt;font style=&quot;font-size: 27px;&quot;&gt;img&lt;/font&gt;" style="ellipse;whiteSpace=wrap;html=1;aspect=fixed;" vertex="1" parent="1">
          <mxGeometry x="1440" y="13" width="60" height="60" as="geometry" />
        </mxCell>
        <mxCell id="v3VLUjdi5kRXmmSsONuN-16" value="&lt;font style=&quot;font-size: 27px;&quot;&gt;img&lt;/font&gt;" style="ellipse;whiteSpace=wrap;html=1;aspect=fixed;" vertex="1" parent="1">
          <mxGeometry x="1520" y="13" width="60" height="60" as="geometry" />
        </mxCell>
        <mxCell id="v3VLUjdi5kRXmmSsONuN-17" value="&lt;font style=&quot;font-size: 27px;&quot;&gt;img&lt;/font&gt;" style="ellipse;whiteSpace=wrap;html=1;aspect=fixed;" vertex="1" parent="1">
          <mxGeometry x="10" y="94" width="60" height="60" as="geometry" />
        </mxCell>
        <mxCell id="v3VLUjdi5kRXmmSsONuN-18" value="" style="rounded=1;whiteSpace=wrap;html=1;" vertex="1" parent="1">
          <mxGeometry x="250" y="210" width="1110" height="550" as="geometry" />
        </mxCell>
        <mxCell id="v3VLUjdi5kRXmmSsONuN-19" value="&lt;font style=&quot;font-size: 27px;&quot;&gt;img&lt;/font&gt;" style="rounded=1;whiteSpace=wrap;html=1;" vertex="1" parent="1">
          <mxGeometry x="250" y="210" width="380" height="550" as="geometry" />
        </mxCell>
        <mxCell id="v3VLUjdi5kRXmmSsONuN-20" value="&lt;font style=&quot;font-size: 27px;&quot;&gt;text&lt;/font&gt;" style="rounded=1;whiteSpace=wrap;html=1;" vertex="1" parent="1">
          <mxGeometry x="250" y="210" width="360" height="50" as="geometry" />
        </mxCell>
        <mxCell id="v3VLUjdi5kRXmmSsONuN-21" value="&lt;p&gt;&lt;font style=&quot;font-size: 17px;&quot;&gt;&amp;nbsp;Lorem ipsum dolor sit amet, consectetur adipiscing elit. Aenean &lt;br/&gt;hendrerit justo metus, in iaculis enim blandit in. Nulla at consectetur &lt;br/&gt;urna. Integer vitae purus augue. Integer sit amet lectus congue, rutrum &lt;br/&gt;purus dapibus, interdum augue. Fusce posuere feugiat pharetra. Proin eu &lt;br/&gt;diam vitae lorem fringilla rutrum. Cras tincidunt ornare urna ut &lt;br/&gt;vehicula. Nam commodo, ex nec porttitor malesuada, lectus est placerat &lt;br/&gt;orci, in ultricies ante ipsum ac magna. Vivamus eget condimentum risus, &lt;br/&gt;nec efficitur orci. Donec at est ultrices, consequat erat quis, pharetra&lt;br/&gt; magna. Nunc eu tortor vitae nunc rhoncus hendrerit. Quisque laoreet &lt;br/&gt;lacus sed dolor rutrum, sit amet viverra enim viverra.&amp;nbsp;&lt;/font&gt;&lt;/p&gt;" style="text;html=1;align=center;verticalAlign=middle;whiteSpace=wrap;rounded=0;" vertex="1" parent="1">
          <mxGeometry x="730" y="269" width="540" height="210" as="geometry" />
        </mxCell>
        <mxCell id="v3VLUjdi5kRXmmSsONuN-22" value="&lt;font style=&quot;font-size: 29px;&quot;&gt;Button&lt;/font&gt;" style="rounded=1;whiteSpace=wrap;html=1;" vertex="1" parent="1">
          <mxGeometry x="730" y="561" width="570" height="60" as="geometry" />
        </mxCell>
        <mxCell id="v3VLUjdi5kRXmmSsONuN-23" value="&lt;font style=&quot;font-size: 29px;&quot;&gt;Button&lt;/font&gt;" style="rounded=1;whiteSpace=wrap;html=1;" vertex="1" parent="1">
          <mxGeometry x="730" y="656" width="570" height="60" as="geometry" />
        </mxCell>
      </root>
    </mxGraphModel>
  </diagram>
  <diagram id="7Nl_R6RUi4r0ZJ6udY47" name="chest/merchant">
    <mxGraphModel dx="2049" dy="1246" grid="1" gridSize="10" guides="1" tooltips="1" connect="1" arrows="1" fold="1" page="1" pageScale="1" pageWidth="1600" pageHeight="900" math="0" shadow="0">
      <root>
        <mxCell id="0" />
        <mxCell id="1" parent="0" />
        <mxCell id="eZO7BUdD0Ar-yeDC8CcL-1" value="&lt;font style=&quot;font-size: 27px;&quot;&gt;img&lt;/font&gt;" style="rounded=0;whiteSpace=wrap;html=1;align=left;" parent="1" vertex="1">
          <mxGeometry width="1600" height="900" as="geometry" />
        </mxCell>
        <mxCell id="eZO7BUdD0Ar-yeDC8CcL-2" value="" style="rounded=0;whiteSpace=wrap;html=1;" parent="1" vertex="1">
          <mxGeometry width="1600" height="90" as="geometry" />
        </mxCell>
        <mxCell id="eZO7BUdD0Ar-yeDC8CcL-3" value="&lt;font style=&quot;font-size: 27px;&quot;&gt;Text&lt;/font&gt;" style="text;html=1;align=center;verticalAlign=middle;whiteSpace=wrap;rounded=0;" parent="1" vertex="1">
          <mxGeometry x="20" y="30" width="60" height="30" as="geometry" />
        </mxCell>
        <mxCell id="eZO7BUdD0Ar-yeDC8CcL-4" value="&lt;font style=&quot;font-size: 27px;&quot;&gt;Text&lt;/font&gt;" style="text;html=1;align=center;verticalAlign=middle;whiteSpace=wrap;rounded=0;" parent="1" vertex="1">
          <mxGeometry x="110" y="30" width="60" height="30" as="geometry" />
        </mxCell>
        <mxCell id="eZO7BUdD0Ar-yeDC8CcL-5" value="&lt;font style=&quot;font-size: 27px;&quot;&gt;Text&lt;/font&gt;" style="text;html=1;align=center;verticalAlign=middle;whiteSpace=wrap;rounded=0;" parent="1" vertex="1">
          <mxGeometry x="290" y="30" width="60" height="30" as="geometry" />
        </mxCell>
        <mxCell id="eZO7BUdD0Ar-yeDC8CcL-6" value="&lt;font style=&quot;font-size: 27px;&quot;&gt;img&lt;/font&gt;" style="ellipse;whiteSpace=wrap;html=1;aspect=fixed;" parent="1" vertex="1">
          <mxGeometry x="230" y="15" width="60" height="60" as="geometry" />
        </mxCell>
        <mxCell id="eZO7BUdD0Ar-yeDC8CcL-7" value="&lt;font style=&quot;font-size: 27px;&quot;&gt;Text&lt;/font&gt;" style="text;html=1;align=center;verticalAlign=middle;whiteSpace=wrap;rounded=0;" parent="1" vertex="1">
          <mxGeometry x="477" y="28" width="60" height="30" as="geometry" />
        </mxCell>
        <mxCell id="eZO7BUdD0Ar-yeDC8CcL-8" value="&lt;font style=&quot;font-size: 27px;&quot;&gt;img&lt;/font&gt;" style="ellipse;whiteSpace=wrap;html=1;aspect=fixed;" parent="1" vertex="1">
          <mxGeometry x="417" y="13" width="60" height="60" as="geometry" />
        </mxCell>
        <mxCell id="eZO7BUdD0Ar-yeDC8CcL-9" value="&lt;font style=&quot;font-size: 27px;&quot;&gt;img&lt;/font&gt;" style="ellipse;whiteSpace=wrap;html=1;aspect=fixed;" parent="1" vertex="1">
          <mxGeometry x="590" y="13" width="60" height="60" as="geometry" />
        </mxCell>
        <mxCell id="eZO7BUdD0Ar-yeDC8CcL-10" value="&lt;font style=&quot;font-size: 27px;&quot;&gt;img&lt;/font&gt;" style="ellipse;whiteSpace=wrap;html=1;aspect=fixed;" parent="1" vertex="1">
          <mxGeometry x="670" y="13" width="60" height="60" as="geometry" />
        </mxCell>
        <mxCell id="eZO7BUdD0Ar-yeDC8CcL-11" value="&lt;font style=&quot;font-size: 27px;&quot;&gt;img&lt;/font&gt;" style="ellipse;whiteSpace=wrap;html=1;aspect=fixed;" parent="1" vertex="1">
          <mxGeometry x="750" y="13" width="60" height="60" as="geometry" />
        </mxCell>
        <mxCell id="eZO7BUdD0Ar-yeDC8CcL-12" value="&lt;font style=&quot;font-size: 27px;&quot;&gt;Text&lt;/font&gt;" style="text;html=1;align=center;verticalAlign=middle;whiteSpace=wrap;rounded=0;" parent="1" vertex="1">
          <mxGeometry x="1020" y="30" width="60" height="30" as="geometry" />
        </mxCell>
        <mxCell id="eZO7BUdD0Ar-yeDC8CcL-13" value="&lt;font style=&quot;font-size: 27px;&quot;&gt;img&lt;/font&gt;" style="ellipse;whiteSpace=wrap;html=1;aspect=fixed;" parent="1" vertex="1">
          <mxGeometry x="960" y="15" width="60" height="60" as="geometry" />
        </mxCell>
        <mxCell id="eZO7BUdD0Ar-yeDC8CcL-14" value="&lt;font style=&quot;font-size: 27px;&quot;&gt;img&lt;/font&gt;" style="ellipse;whiteSpace=wrap;html=1;aspect=fixed;" parent="1" vertex="1">
          <mxGeometry x="1360" y="13" width="60" height="60" as="geometry" />
        </mxCell>
        <mxCell id="eZO7BUdD0Ar-yeDC8CcL-15" value="&lt;font style=&quot;font-size: 27px;&quot;&gt;img&lt;/font&gt;" style="ellipse;whiteSpace=wrap;html=1;aspect=fixed;" parent="1" vertex="1">
          <mxGeometry x="1440" y="13" width="60" height="60" as="geometry" />
        </mxCell>
        <mxCell id="eZO7BUdD0Ar-yeDC8CcL-16" value="&lt;font style=&quot;font-size: 27px;&quot;&gt;img&lt;/font&gt;" style="ellipse;whiteSpace=wrap;html=1;aspect=fixed;" parent="1" vertex="1">
          <mxGeometry x="1520" y="13" width="60" height="60" as="geometry" />
        </mxCell>
        <mxCell id="eZO7BUdD0Ar-yeDC8CcL-17" value="&lt;font style=&quot;font-size: 27px;&quot;&gt;img&lt;/font&gt;" style="ellipse;whiteSpace=wrap;html=1;aspect=fixed;" parent="1" vertex="1">
          <mxGeometry x="10" y="94" width="60" height="60" as="geometry" />
        </mxCell>
        <mxCell id="ntL35cDY2zNqwv3Bsi0S-1" value="&lt;font style=&quot;font-size: 27px;&quot;&gt;IMG&lt;/font&gt;" style="rounded=0;whiteSpace=wrap;html=1;" parent="1" vertex="1">
          <mxGeometry x="210" y="310" width="180" height="320" as="geometry" />
        </mxCell>
        <mxCell id="ntL35cDY2zNqwv3Bsi0S-2" value="&lt;font style=&quot;font-size: 27px;&quot;&gt;IMG&lt;/font&gt;" style="rounded=0;whiteSpace=wrap;html=1;" parent="1" vertex="1">
          <mxGeometry x="983" y="300" width="280" height="320" as="geometry" />
        </mxCell>
        <mxCell id="s97jD1g8_wS1QYKBlh77-1" value="&lt;font style=&quot;font-size: 27px;&quot;&gt;img&lt;/font&gt;" style="rounded=1;whiteSpace=wrap;html=1;align=left;" parent="1" vertex="1">
          <mxGeometry x="1330" y="440" width="210" height="110" as="geometry" />
        </mxCell>
        <mxCell id="s97jD1g8_wS1QYKBlh77-2" value="&lt;font style=&quot;font-size: 27px;&quot;&gt;Text&lt;/font&gt;" style="text;html=1;align=center;verticalAlign=middle;whiteSpace=wrap;rounded=0;" parent="1" vertex="1">
          <mxGeometry x="1420" y="480" width="60" height="30" as="geometry" />
        </mxCell>
      </root>
    </mxGraphModel>
  </diagram>
  <diagram id="8ir3S2TN0jh5GlhQcG3S" name="shop">
    <mxGraphModel dx="2049" dy="1246" grid="1" gridSize="10" guides="1" tooltips="1" connect="1" arrows="1" fold="1" page="1" pageScale="1" pageWidth="1600" pageHeight="900" math="0" shadow="0">
      <root>
        <mxCell id="0" />
        <mxCell id="1" parent="0" />
        <mxCell id="wUnKw1hOGObpZSgva60A-1" value="&lt;font style=&quot;font-size: 27px;&quot;&gt;img&lt;/font&gt;" style="rounded=0;whiteSpace=wrap;html=1;align=left;" vertex="1" parent="1">
          <mxGeometry width="1600" height="900" as="geometry" />
        </mxCell>
        <mxCell id="wUnKw1hOGObpZSgva60A-2" value="" style="rounded=0;whiteSpace=wrap;html=1;" vertex="1" parent="1">
          <mxGeometry width="1600" height="90" as="geometry" />
        </mxCell>
        <mxCell id="wUnKw1hOGObpZSgva60A-3" value="&lt;font style=&quot;font-size: 27px;&quot;&gt;Text&lt;/font&gt;" style="text;html=1;align=center;verticalAlign=middle;whiteSpace=wrap;rounded=0;" vertex="1" parent="1">
          <mxGeometry x="20" y="30" width="60" height="30" as="geometry" />
        </mxCell>
        <mxCell id="wUnKw1hOGObpZSgva60A-4" value="&lt;font style=&quot;font-size: 27px;&quot;&gt;Text&lt;/font&gt;" style="text;html=1;align=center;verticalAlign=middle;whiteSpace=wrap;rounded=0;" vertex="1" parent="1">
          <mxGeometry x="110" y="30" width="60" height="30" as="geometry" />
        </mxCell>
        <mxCell id="wUnKw1hOGObpZSgva60A-5" value="&lt;font style=&quot;font-size: 27px;&quot;&gt;Text&lt;/font&gt;" style="text;html=1;align=center;verticalAlign=middle;whiteSpace=wrap;rounded=0;" vertex="1" parent="1">
          <mxGeometry x="290" y="30" width="60" height="30" as="geometry" />
        </mxCell>
        <mxCell id="wUnKw1hOGObpZSgva60A-6" value="&lt;font style=&quot;font-size: 27px;&quot;&gt;img&lt;/font&gt;" style="ellipse;whiteSpace=wrap;html=1;aspect=fixed;" vertex="1" parent="1">
          <mxGeometry x="230" y="15" width="60" height="60" as="geometry" />
        </mxCell>
        <mxCell id="wUnKw1hOGObpZSgva60A-7" value="&lt;font style=&quot;font-size: 27px;&quot;&gt;Text&lt;/font&gt;" style="text;html=1;align=center;verticalAlign=middle;whiteSpace=wrap;rounded=0;" vertex="1" parent="1">
          <mxGeometry x="477" y="28" width="60" height="30" as="geometry" />
        </mxCell>
        <mxCell id="wUnKw1hOGObpZSgva60A-8" value="&lt;font style=&quot;font-size: 27px;&quot;&gt;img&lt;/font&gt;" style="ellipse;whiteSpace=wrap;html=1;aspect=fixed;" vertex="1" parent="1">
          <mxGeometry x="417" y="13" width="60" height="60" as="geometry" />
        </mxCell>
        <mxCell id="wUnKw1hOGObpZSgva60A-9" value="&lt;font style=&quot;font-size: 27px;&quot;&gt;img&lt;/font&gt;" style="ellipse;whiteSpace=wrap;html=1;aspect=fixed;" vertex="1" parent="1">
          <mxGeometry x="590" y="13" width="60" height="60" as="geometry" />
        </mxCell>
        <mxCell id="wUnKw1hOGObpZSgva60A-10" value="&lt;font style=&quot;font-size: 27px;&quot;&gt;img&lt;/font&gt;" style="ellipse;whiteSpace=wrap;html=1;aspect=fixed;" vertex="1" parent="1">
          <mxGeometry x="670" y="13" width="60" height="60" as="geometry" />
        </mxCell>
        <mxCell id="wUnKw1hOGObpZSgva60A-11" value="&lt;font style=&quot;font-size: 27px;&quot;&gt;img&lt;/font&gt;" style="ellipse;whiteSpace=wrap;html=1;aspect=fixed;" vertex="1" parent="1">
          <mxGeometry x="750" y="13" width="60" height="60" as="geometry" />
        </mxCell>
        <mxCell id="wUnKw1hOGObpZSgva60A-12" value="&lt;font style=&quot;font-size: 27px;&quot;&gt;Text&lt;/font&gt;" style="text;html=1;align=center;verticalAlign=middle;whiteSpace=wrap;rounded=0;" vertex="1" parent="1">
          <mxGeometry x="1020" y="30" width="60" height="30" as="geometry" />
        </mxCell>
        <mxCell id="wUnKw1hOGObpZSgva60A-13" value="&lt;font style=&quot;font-size: 27px;&quot;&gt;img&lt;/font&gt;" style="ellipse;whiteSpace=wrap;html=1;aspect=fixed;" vertex="1" parent="1">
          <mxGeometry x="960" y="15" width="60" height="60" as="geometry" />
        </mxCell>
        <mxCell id="wUnKw1hOGObpZSgva60A-14" value="&lt;font style=&quot;font-size: 27px;&quot;&gt;img&lt;/font&gt;" style="ellipse;whiteSpace=wrap;html=1;aspect=fixed;" vertex="1" parent="1">
          <mxGeometry x="1360" y="13" width="60" height="60" as="geometry" />
        </mxCell>
        <mxCell id="wUnKw1hOGObpZSgva60A-15" value="&lt;font style=&quot;font-size: 27px;&quot;&gt;img&lt;/font&gt;" style="ellipse;whiteSpace=wrap;html=1;aspect=fixed;" vertex="1" parent="1">
          <mxGeometry x="1440" y="13" width="60" height="60" as="geometry" />
        </mxCell>
        <mxCell id="wUnKw1hOGObpZSgva60A-16" value="&lt;font style=&quot;font-size: 27px;&quot;&gt;img&lt;/font&gt;" style="ellipse;whiteSpace=wrap;html=1;aspect=fixed;" vertex="1" parent="1">
          <mxGeometry x="1520" y="13" width="60" height="60" as="geometry" />
        </mxCell>
        <mxCell id="wUnKw1hOGObpZSgva60A-17" value="&lt;font style=&quot;font-size: 27px;&quot;&gt;img&lt;/font&gt;" style="ellipse;whiteSpace=wrap;html=1;aspect=fixed;" vertex="1" parent="1">
          <mxGeometry x="10" y="94" width="60" height="60" as="geometry" />
        </mxCell>
        <mxCell id="wUnKw1hOGObpZSgva60A-18" value="&lt;font style=&quot;font-size: 27px;&quot;&gt;Text&lt;/font&gt;" style="text;html=1;align=center;verticalAlign=middle;whiteSpace=wrap;rounded=0;" vertex="1" parent="1">
          <mxGeometry x="238" y="352" width="60" height="30" as="geometry" />
        </mxCell>
        <mxCell id="wUnKw1hOGObpZSgva60A-19" value="&lt;font style=&quot;font-size: 27px;&quot;&gt;img&lt;/font&gt;" style="ellipse;whiteSpace=wrap;html=1;aspect=fixed;" vertex="1" parent="1">
          <mxGeometry x="184" y="345" width="45" height="45" as="geometry" />
        </mxCell>
        <mxCell id="wUnKw1hOGObpZSgva60A-20" value="&lt;font style=&quot;font-size: 24px;&quot;&gt;img&lt;/font&gt;" style="rounded=0;whiteSpace=wrap;html=1;align=left;" vertex="1" parent="1">
          <mxGeometry x="180" y="140" width="130" height="190" as="geometry" />
        </mxCell>
        <mxCell id="ZYz3cqNgiV0y6d6US_IB-3" value="img" style="rounded=0;whiteSpace=wrap;html=1;" vertex="1" parent="1">
          <mxGeometry x="180" y="150" width="130" height="70" as="geometry" />
        </mxCell>
        <mxCell id="ZYz3cqNgiV0y6d6US_IB-2" value="&lt;font style=&quot;font-size: 27px;&quot;&gt;img&lt;/font&gt;" style="ellipse;whiteSpace=wrap;html=1;aspect=fixed;" vertex="1" parent="1">
          <mxGeometry x="160" y="120" width="50" height="50" as="geometry" />
        </mxCell>
        <mxCell id="ZYz3cqNgiV0y6d6US_IB-4" value="&lt;font style=&quot;font-size: 27px;&quot;&gt;Text&lt;/font&gt;" style="text;html=1;align=center;verticalAlign=middle;whiteSpace=wrap;rounded=0;" vertex="1" parent="1">
          <mxGeometry x="190" y="270" width="100" height="40" as="geometry" />
        </mxCell>
        <mxCell id="ZYz3cqNgiV0y6d6US_IB-5" value="Text" style="text;html=1;align=center;verticalAlign=middle;whiteSpace=wrap;rounded=0;" vertex="1" parent="1">
          <mxGeometry x="215" y="210" width="60" height="30" as="geometry" />
        </mxCell>
        <mxCell id="ZYz3cqNgiV0y6d6US_IB-6" value="&lt;font style=&quot;font-size: 27px;&quot;&gt;Text&lt;/font&gt;" style="text;html=1;align=center;verticalAlign=middle;whiteSpace=wrap;rounded=0;" vertex="1" parent="1">
          <mxGeometry x="548" y="352" width="60" height="30" as="geometry" />
        </mxCell>
        <mxCell id="ZYz3cqNgiV0y6d6US_IB-7" value="&lt;font style=&quot;font-size: 27px;&quot;&gt;img&lt;/font&gt;" style="ellipse;whiteSpace=wrap;html=1;aspect=fixed;" vertex="1" parent="1">
          <mxGeometry x="494" y="345" width="45" height="45" as="geometry" />
        </mxCell>
        <mxCell id="ZYz3cqNgiV0y6d6US_IB-8" value="&lt;font style=&quot;font-size: 24px;&quot;&gt;img&lt;/font&gt;" style="rounded=0;whiteSpace=wrap;html=1;align=left;" vertex="1" parent="1">
          <mxGeometry x="490" y="140" width="130" height="190" as="geometry" />
        </mxCell>
        <mxCell id="ZYz3cqNgiV0y6d6US_IB-9" value="img" style="rounded=0;whiteSpace=wrap;html=1;" vertex="1" parent="1">
          <mxGeometry x="490" y="150" width="130" height="70" as="geometry" />
        </mxCell>
        <mxCell id="ZYz3cqNgiV0y6d6US_IB-10" value="&lt;font style=&quot;font-size: 27px;&quot;&gt;img&lt;/font&gt;" style="ellipse;whiteSpace=wrap;html=1;aspect=fixed;" vertex="1" parent="1">
          <mxGeometry x="470" y="120" width="50" height="50" as="geometry" />
        </mxCell>
        <mxCell id="ZYz3cqNgiV0y6d6US_IB-11" value="&lt;font style=&quot;font-size: 27px;&quot;&gt;Text&lt;/font&gt;" style="text;html=1;align=center;verticalAlign=middle;whiteSpace=wrap;rounded=0;" vertex="1" parent="1">
          <mxGeometry x="500" y="270" width="100" height="40" as="geometry" />
        </mxCell>
        <mxCell id="ZYz3cqNgiV0y6d6US_IB-12" value="Text" style="text;html=1;align=center;verticalAlign=middle;whiteSpace=wrap;rounded=0;" vertex="1" parent="1">
          <mxGeometry x="525" y="210" width="60" height="30" as="geometry" />
        </mxCell>
        <mxCell id="ZYz3cqNgiV0y6d6US_IB-13" value="&lt;font style=&quot;font-size: 27px;&quot;&gt;Text&lt;/font&gt;" style="text;html=1;align=center;verticalAlign=middle;whiteSpace=wrap;rounded=0;" vertex="1" parent="1">
          <mxGeometry x="811" y="344" width="60" height="30" as="geometry" />
        </mxCell>
        <mxCell id="ZYz3cqNgiV0y6d6US_IB-14" value="&lt;font style=&quot;font-size: 27px;&quot;&gt;img&lt;/font&gt;" style="ellipse;whiteSpace=wrap;html=1;aspect=fixed;" vertex="1" parent="1">
          <mxGeometry x="757" y="337" width="45" height="45" as="geometry" />
        </mxCell>
        <mxCell id="ZYz3cqNgiV0y6d6US_IB-15" value="&lt;font style=&quot;font-size: 24px;&quot;&gt;img&lt;/font&gt;" style="rounded=0;whiteSpace=wrap;html=1;align=left;" vertex="1" parent="1">
          <mxGeometry x="753" y="132" width="130" height="190" as="geometry" />
        </mxCell>
        <mxCell id="ZYz3cqNgiV0y6d6US_IB-16" value="img" style="rounded=0;whiteSpace=wrap;html=1;" vertex="1" parent="1">
          <mxGeometry x="753" y="142" width="130" height="70" as="geometry" />
        </mxCell>
        <mxCell id="ZYz3cqNgiV0y6d6US_IB-17" value="&lt;font style=&quot;font-size: 27px;&quot;&gt;img&lt;/font&gt;" style="ellipse;whiteSpace=wrap;html=1;aspect=fixed;" vertex="1" parent="1">
          <mxGeometry x="733" y="112" width="50" height="50" as="geometry" />
        </mxCell>
        <mxCell id="ZYz3cqNgiV0y6d6US_IB-18" value="&lt;font style=&quot;font-size: 27px;&quot;&gt;Text&lt;/font&gt;" style="text;html=1;align=center;verticalAlign=middle;whiteSpace=wrap;rounded=0;" vertex="1" parent="1">
          <mxGeometry x="763" y="262" width="100" height="40" as="geometry" />
        </mxCell>
        <mxCell id="ZYz3cqNgiV0y6d6US_IB-19" value="Text" style="text;html=1;align=center;verticalAlign=middle;whiteSpace=wrap;rounded=0;" vertex="1" parent="1">
          <mxGeometry x="788" y="202" width="60" height="30" as="geometry" />
        </mxCell>
        <mxCell id="ZYz3cqNgiV0y6d6US_IB-20" value="&lt;font style=&quot;font-size: 27px;&quot;&gt;Text&lt;/font&gt;" style="text;html=1;align=center;verticalAlign=middle;whiteSpace=wrap;rounded=0;" vertex="1" parent="1">
          <mxGeometry x="1108" y="344" width="60" height="30" as="geometry" />
        </mxCell>
        <mxCell id="ZYz3cqNgiV0y6d6US_IB-21" value="&lt;font style=&quot;font-size: 27px;&quot;&gt;img&lt;/font&gt;" style="ellipse;whiteSpace=wrap;html=1;aspect=fixed;" vertex="1" parent="1">
          <mxGeometry x="1054" y="337" width="45" height="45" as="geometry" />
        </mxCell>
        <mxCell id="ZYz3cqNgiV0y6d6US_IB-22" value="&lt;font style=&quot;font-size: 24px;&quot;&gt;img&lt;/font&gt;" style="rounded=0;whiteSpace=wrap;html=1;align=left;" vertex="1" parent="1">
          <mxGeometry x="1050" y="132" width="130" height="190" as="geometry" />
        </mxCell>
        <mxCell id="ZYz3cqNgiV0y6d6US_IB-23" value="img" style="rounded=0;whiteSpace=wrap;html=1;" vertex="1" parent="1">
          <mxGeometry x="1050" y="142" width="130" height="70" as="geometry" />
        </mxCell>
        <mxCell id="ZYz3cqNgiV0y6d6US_IB-24" value="&lt;font style=&quot;font-size: 27px;&quot;&gt;img&lt;/font&gt;" style="ellipse;whiteSpace=wrap;html=1;aspect=fixed;" vertex="1" parent="1">
          <mxGeometry x="1030" y="112" width="50" height="50" as="geometry" />
        </mxCell>
        <mxCell id="ZYz3cqNgiV0y6d6US_IB-25" value="&lt;font style=&quot;font-size: 27px;&quot;&gt;Text&lt;/font&gt;" style="text;html=1;align=center;verticalAlign=middle;whiteSpace=wrap;rounded=0;" vertex="1" parent="1">
          <mxGeometry x="1060" y="262" width="100" height="40" as="geometry" />
        </mxCell>
        <mxCell id="ZYz3cqNgiV0y6d6US_IB-26" value="Text" style="text;html=1;align=center;verticalAlign=middle;whiteSpace=wrap;rounded=0;" vertex="1" parent="1">
          <mxGeometry x="1085" y="202" width="60" height="30" as="geometry" />
        </mxCell>
        <mxCell id="ZYz3cqNgiV0y6d6US_IB-27" value="&lt;font style=&quot;font-size: 27px;&quot;&gt;Text&lt;/font&gt;" style="text;html=1;align=center;verticalAlign=middle;whiteSpace=wrap;rounded=0;" vertex="1" parent="1">
          <mxGeometry x="1348" y="344" width="60" height="30" as="geometry" />
        </mxCell>
        <mxCell id="ZYz3cqNgiV0y6d6US_IB-28" value="&lt;font style=&quot;font-size: 27px;&quot;&gt;img&lt;/font&gt;" style="ellipse;whiteSpace=wrap;html=1;aspect=fixed;" vertex="1" parent="1">
          <mxGeometry x="1294" y="337" width="45" height="45" as="geometry" />
        </mxCell>
        <mxCell id="ZYz3cqNgiV0y6d6US_IB-29" value="&lt;font style=&quot;font-size: 24px;&quot;&gt;img&lt;/font&gt;" style="rounded=0;whiteSpace=wrap;html=1;align=left;" vertex="1" parent="1">
          <mxGeometry x="1290" y="132" width="130" height="190" as="geometry" />
        </mxCell>
        <mxCell id="ZYz3cqNgiV0y6d6US_IB-30" value="img" style="rounded=0;whiteSpace=wrap;html=1;" vertex="1" parent="1">
          <mxGeometry x="1290" y="142" width="130" height="70" as="geometry" />
        </mxCell>
        <mxCell id="ZYz3cqNgiV0y6d6US_IB-31" value="&lt;font style=&quot;font-size: 27px;&quot;&gt;img&lt;/font&gt;" style="ellipse;whiteSpace=wrap;html=1;aspect=fixed;" vertex="1" parent="1">
          <mxGeometry x="1270" y="112" width="50" height="50" as="geometry" />
        </mxCell>
        <mxCell id="ZYz3cqNgiV0y6d6US_IB-32" value="&lt;font style=&quot;font-size: 27px;&quot;&gt;Text&lt;/font&gt;" style="text;html=1;align=center;verticalAlign=middle;whiteSpace=wrap;rounded=0;" vertex="1" parent="1">
          <mxGeometry x="1300" y="262" width="100" height="40" as="geometry" />
        </mxCell>
        <mxCell id="ZYz3cqNgiV0y6d6US_IB-33" value="Text" style="text;html=1;align=center;verticalAlign=middle;whiteSpace=wrap;rounded=0;" vertex="1" parent="1">
          <mxGeometry x="1325" y="202" width="60" height="30" as="geometry" />
        </mxCell>
        <mxCell id="ZYz3cqNgiV0y6d6US_IB-34" value="&lt;font style=&quot;font-size: 27px;&quot;&gt;Text&lt;/font&gt;" style="text;html=1;align=center;verticalAlign=middle;whiteSpace=wrap;rounded=0;" vertex="1" parent="1">
          <mxGeometry x="238" y="702" width="60" height="30" as="geometry" />
        </mxCell>
        <mxCell id="ZYz3cqNgiV0y6d6US_IB-35" value="&lt;font style=&quot;font-size: 27px;&quot;&gt;img&lt;/font&gt;" style="ellipse;whiteSpace=wrap;html=1;aspect=fixed;" vertex="1" parent="1">
          <mxGeometry x="184" y="695" width="45" height="45" as="geometry" />
        </mxCell>
        <mxCell id="ZYz3cqNgiV0y6d6US_IB-36" value="&lt;font style=&quot;font-size: 24px;&quot;&gt;img&lt;/font&gt;" style="rounded=0;whiteSpace=wrap;html=1;align=left;" vertex="1" parent="1">
          <mxGeometry x="180" y="490" width="130" height="190" as="geometry" />
        </mxCell>
        <mxCell id="ZYz3cqNgiV0y6d6US_IB-37" value="img" style="rounded=0;whiteSpace=wrap;html=1;" vertex="1" parent="1">
          <mxGeometry x="180" y="500" width="130" height="70" as="geometry" />
        </mxCell>
        <mxCell id="ZYz3cqNgiV0y6d6US_IB-38" value="&lt;font style=&quot;font-size: 27px;&quot;&gt;img&lt;/font&gt;" style="ellipse;whiteSpace=wrap;html=1;aspect=fixed;" vertex="1" parent="1">
          <mxGeometry x="160" y="470" width="50" height="50" as="geometry" />
        </mxCell>
        <mxCell id="ZYz3cqNgiV0y6d6US_IB-39" value="&lt;font style=&quot;font-size: 27px;&quot;&gt;Text&lt;/font&gt;" style="text;html=1;align=center;verticalAlign=middle;whiteSpace=wrap;rounded=0;" vertex="1" parent="1">
          <mxGeometry x="190" y="620" width="100" height="40" as="geometry" />
        </mxCell>
        <mxCell id="ZYz3cqNgiV0y6d6US_IB-40" value="Text" style="text;html=1;align=center;verticalAlign=middle;whiteSpace=wrap;rounded=0;" vertex="1" parent="1">
          <mxGeometry x="215" y="560" width="60" height="30" as="geometry" />
        </mxCell>
        <mxCell id="ZYz3cqNgiV0y6d6US_IB-41" value="&lt;font style=&quot;font-size: 27px;&quot;&gt;Text&lt;/font&gt;" style="text;html=1;align=center;verticalAlign=middle;whiteSpace=wrap;rounded=0;" vertex="1" parent="1">
          <mxGeometry x="553" y="702" width="60" height="30" as="geometry" />
        </mxCell>
        <mxCell id="ZYz3cqNgiV0y6d6US_IB-42" value="&lt;font style=&quot;font-size: 27px;&quot;&gt;img&lt;/font&gt;" style="ellipse;whiteSpace=wrap;html=1;aspect=fixed;" vertex="1" parent="1">
          <mxGeometry x="499" y="695" width="45" height="45" as="geometry" />
        </mxCell>
        <mxCell id="ZYz3cqNgiV0y6d6US_IB-43" value="&lt;font style=&quot;font-size: 24px;&quot;&gt;img&lt;/font&gt;" style="rounded=0;whiteSpace=wrap;html=1;align=left;" vertex="1" parent="1">
          <mxGeometry x="495" y="490" width="130" height="190" as="geometry" />
        </mxCell>
        <mxCell id="ZYz3cqNgiV0y6d6US_IB-44" value="img" style="rounded=0;whiteSpace=wrap;html=1;" vertex="1" parent="1">
          <mxGeometry x="495" y="500" width="130" height="70" as="geometry" />
        </mxCell>
        <mxCell id="ZYz3cqNgiV0y6d6US_IB-45" value="&lt;font style=&quot;font-size: 27px;&quot;&gt;img&lt;/font&gt;" style="ellipse;whiteSpace=wrap;html=1;aspect=fixed;" vertex="1" parent="1">
          <mxGeometry x="475" y="470" width="50" height="50" as="geometry" />
        </mxCell>
        <mxCell id="ZYz3cqNgiV0y6d6US_IB-46" value="&lt;font style=&quot;font-size: 27px;&quot;&gt;Text&lt;/font&gt;" style="text;html=1;align=center;verticalAlign=middle;whiteSpace=wrap;rounded=0;" vertex="1" parent="1">
          <mxGeometry x="505" y="620" width="100" height="40" as="geometry" />
        </mxCell>
        <mxCell id="ZYz3cqNgiV0y6d6US_IB-47" value="Text" style="text;html=1;align=center;verticalAlign=middle;whiteSpace=wrap;rounded=0;" vertex="1" parent="1">
          <mxGeometry x="530" y="560" width="60" height="30" as="geometry" />
        </mxCell>
        <mxCell id="ZYz3cqNgiV0y6d6US_IB-48" value="&lt;font style=&quot;font-size: 27px;&quot;&gt;IMG&lt;/font&gt;" style="rounded=1;whiteSpace=wrap;html=1;" vertex="1" parent="1">
          <mxGeometry x="1310" y="490" width="240" height="290" as="geometry" />
        </mxCell>
        <mxCell id="ZYz3cqNgiV0y6d6US_IB-49" value="&lt;font style=&quot;font-size: 27px;&quot;&gt;img&lt;/font&gt;" style="ellipse;whiteSpace=wrap;html=1;aspect=fixed;" vertex="1" parent="1">
          <mxGeometry x="757" y="490" width="60" height="60" as="geometry" />
        </mxCell>
        <mxCell id="ZYz3cqNgiV0y6d6US_IB-50" value="&lt;font style=&quot;font-size: 27px;&quot;&gt;img&lt;/font&gt;" style="ellipse;whiteSpace=wrap;html=1;aspect=fixed;" vertex="1" parent="1">
          <mxGeometry x="886" y="490" width="60" height="60" as="geometry" />
        </mxCell>
        <mxCell id="ZYz3cqNgiV0y6d6US_IB-51" value="&lt;font style=&quot;font-size: 27px;&quot;&gt;img&lt;/font&gt;" style="ellipse;whiteSpace=wrap;html=1;aspect=fixed;" vertex="1" parent="1">
          <mxGeometry x="1039" y="490" width="60" height="60" as="geometry" />
        </mxCell>
        <mxCell id="ZYz3cqNgiV0y6d6US_IB-52" value="&lt;font style=&quot;font-size: 27px;&quot;&gt;img&lt;/font&gt;" style="ellipse;whiteSpace=wrap;html=1;aspect=fixed;" vertex="1" parent="1">
          <mxGeometry x="763" y="633" width="60" height="60" as="geometry" />
        </mxCell>
        <mxCell id="ZYz3cqNgiV0y6d6US_IB-53" value="&lt;font style=&quot;font-size: 27px;&quot;&gt;img&lt;/font&gt;" style="ellipse;whiteSpace=wrap;html=1;aspect=fixed;" vertex="1" parent="1">
          <mxGeometry x="890" y="633" width="60" height="60" as="geometry" />
        </mxCell>
        <mxCell id="ZYz3cqNgiV0y6d6US_IB-54" value="&lt;font style=&quot;font-size: 27px;&quot;&gt;img&lt;/font&gt;" style="ellipse;whiteSpace=wrap;html=1;aspect=fixed;" vertex="1" parent="1">
          <mxGeometry x="1046.5" y="636" width="60" height="60" as="geometry" />
        </mxCell>
        <mxCell id="ZYz3cqNgiV0y6d6US_IB-55" value="&lt;font style=&quot;font-size: 27px;&quot;&gt;Text&lt;/font&gt;" style="text;html=1;align=center;verticalAlign=middle;whiteSpace=wrap;rounded=0;" vertex="1" parent="1">
          <mxGeometry x="784" y="559.5" width="60" height="30" as="geometry" />
        </mxCell>
        <mxCell id="ZYz3cqNgiV0y6d6US_IB-56" value="&lt;font style=&quot;font-size: 27px;&quot;&gt;img&lt;/font&gt;" style="ellipse;whiteSpace=wrap;html=1;aspect=fixed;" vertex="1" parent="1">
          <mxGeometry x="730" y="552.5" width="45" height="45" as="geometry" />
        </mxCell>
        <mxCell id="ZYz3cqNgiV0y6d6US_IB-57" value="&lt;font style=&quot;font-size: 27px;&quot;&gt;Text&lt;/font&gt;" style="text;html=1;align=center;verticalAlign=middle;whiteSpace=wrap;rounded=0;" vertex="1" parent="1">
          <mxGeometry x="920" y="566.5" width="60" height="30" as="geometry" />
        </mxCell>
        <mxCell id="ZYz3cqNgiV0y6d6US_IB-58" value="&lt;font style=&quot;font-size: 27px;&quot;&gt;img&lt;/font&gt;" style="ellipse;whiteSpace=wrap;html=1;aspect=fixed;" vertex="1" parent="1">
          <mxGeometry x="866" y="559.5" width="45" height="45" as="geometry" />
        </mxCell>
        <mxCell id="ZYz3cqNgiV0y6d6US_IB-59" value="&lt;font style=&quot;font-size: 27px;&quot;&gt;Text&lt;/font&gt;" style="text;html=1;align=center;verticalAlign=middle;whiteSpace=wrap;rounded=0;" vertex="1" parent="1">
          <mxGeometry x="1073.5" y="569.5" width="60" height="30" as="geometry" />
        </mxCell>
        <mxCell id="ZYz3cqNgiV0y6d6US_IB-60" value="&lt;font style=&quot;font-size: 27px;&quot;&gt;img&lt;/font&gt;" style="ellipse;whiteSpace=wrap;html=1;aspect=fixed;" vertex="1" parent="1">
          <mxGeometry x="1019.5" y="562.5" width="45" height="45" as="geometry" />
        </mxCell>
        <mxCell id="ZYz3cqNgiV0y6d6US_IB-61" value="&lt;font style=&quot;font-size: 27px;&quot;&gt;Text&lt;/font&gt;" style="text;html=1;align=center;verticalAlign=middle;whiteSpace=wrap;rounded=0;" vertex="1" parent="1">
          <mxGeometry x="790" y="709" width="60" height="30" as="geometry" />
        </mxCell>
        <mxCell id="ZYz3cqNgiV0y6d6US_IB-62" value="&lt;font style=&quot;font-size: 27px;&quot;&gt;img&lt;/font&gt;" style="ellipse;whiteSpace=wrap;html=1;aspect=fixed;" vertex="1" parent="1">
          <mxGeometry x="736" y="702" width="45" height="45" as="geometry" />
        </mxCell>
        <mxCell id="ZYz3cqNgiV0y6d6US_IB-63" value="&lt;font style=&quot;font-size: 27px;&quot;&gt;Text&lt;/font&gt;" style="text;html=1;align=center;verticalAlign=middle;whiteSpace=wrap;rounded=0;" vertex="1" parent="1">
          <mxGeometry x="925" y="716" width="60" height="30" as="geometry" />
        </mxCell>
        <mxCell id="ZYz3cqNgiV0y6d6US_IB-64" value="&lt;font style=&quot;font-size: 27px;&quot;&gt;img&lt;/font&gt;" style="ellipse;whiteSpace=wrap;html=1;aspect=fixed;" vertex="1" parent="1">
          <mxGeometry x="871" y="709" width="45" height="45" as="geometry" />
        </mxCell>
        <mxCell id="ZYz3cqNgiV0y6d6US_IB-65" value="&lt;font style=&quot;font-size: 27px;&quot;&gt;Text&lt;/font&gt;" style="text;html=1;align=center;verticalAlign=middle;whiteSpace=wrap;rounded=0;" vertex="1" parent="1">
          <mxGeometry x="1074" y="722" width="60" height="30" as="geometry" />
        </mxCell>
        <mxCell id="ZYz3cqNgiV0y6d6US_IB-66" value="&lt;font style=&quot;font-size: 27px;&quot;&gt;img&lt;/font&gt;" style="ellipse;whiteSpace=wrap;html=1;aspect=fixed;" vertex="1" parent="1">
          <mxGeometry x="1020" y="715" width="45" height="45" as="geometry" />
        </mxCell>
        <mxCell id="ZYz3cqNgiV0y6d6US_IB-67" value="&lt;font style=&quot;font-size: 27px;&quot;&gt;Text&lt;/font&gt;" style="text;html=1;align=center;verticalAlign=middle;whiteSpace=wrap;rounded=0;" vertex="1" parent="1">
          <mxGeometry x="1427" y="807" width="60" height="30" as="geometry" />
        </mxCell>
        <mxCell id="ZYz3cqNgiV0y6d6US_IB-68" value="&lt;font style=&quot;font-size: 27px;&quot;&gt;img&lt;/font&gt;" style="ellipse;whiteSpace=wrap;html=1;aspect=fixed;" vertex="1" parent="1">
          <mxGeometry x="1373" y="800" width="45" height="45" as="geometry" />
        </mxCell>
        <mxCell id="ZYz3cqNgiV0y6d6US_IB-69" value="&lt;font style=&quot;font-size: 27px;&quot;&gt;img &amp;amp; text&lt;/font&gt;" style="rounded=1;whiteSpace=wrap;html=1;" vertex="1" parent="1">
          <mxGeometry y="693" width="130" height="60" as="geometry" />
        </mxCell>
      </root>
    </mxGraphModel>
  </diagram>
</mxfile>
